<svg xmlns="http://www.w3.org/2000/svg" viewBox="0 0 32 32">
  <!-- Background circle -->
  <circle cx="16" cy="16" r="16" fill="#1a1a2e"/>
  <!-- Tower body -->
  <polygon points="16,3 19.5,12 12.5,12" fill="#e8450a"/>
  <polygon points="12.5,12 19.5,12 21.5,22 10.5,22" fill="#e8450a"/>
  <polygon points="10.5,22 21.5,22 23,29 9,29" fill="#e8450a"/>
  <!-- White bands -->
  <rect x="12" y="11.2" width="8" height="1.3" fill="white" opacity="0.9"/>
  <rect x="10.8" y="19.2" width="10.4" height="1.3" fill="white" opacity="0.9"/>
  <rect x="9.2" y="25.8" width="13.6" height="1.3" fill="white" opacity="0.9"/>
  <!-- Antenna -->
  <rect x="15.4" y="0" width="1.2" height="4" fill="#e8450a"/>
  <!-- Observation deck -->
  <rect x="13.8" y="11" width="4.4" height="1.8" fill="#c0392b" rx="0.4"/>
  <!-- Bottom legs -->
  <polygon points="9,29 10.2,29 11.5,23 10.5,23" fill="#c0392b"/>
  <polygon points="23,29 21.8,29 20.5,23 21.5,23" fill="#c0392b"/>
</svg>